<?xml version="1.0" encoding="utf-8"?>
<svg xmlns="http://www.w3.org/2000/svg" viewBox="719.2595 223.3524 100.22 100.221" width="100.22px" height="100.221px"><g id="object-1" transform="matrix(1, 0, 0, 1, 7.966494320824609, 11.71544682131551)"><g><path d="M 773.931 279.644 C 773.931 282.608 776.336 285.013 779.3 285.013 C 782.264 285.013 784.669 282.608 784.669 279.644 C 784.669 276.68 782.264 274.275 779.3 274.275 L 773.931 274.275 L 773.931 279.644 Z M 784.669 243.851 C 784.669 240.887 782.264 238.482 779.3 238.482 C 776.336 238.482 773.931 240.887 773.931 243.851 L 773.931 249.22 L 779.3 249.22 C 782.264 249.22 784.669 246.815 784.669 243.851 Z" p-id="7960" style="stroke-width: 1; fill: rgb(12, 87, 255);"/><path d="M 756.035 256.379 L 766.772 256.379 L 766.772 267.116 L 756.035 267.116 L 756.035 256.379 Z M 743.507 238.482 C 740.543 238.482 738.138 240.887 738.138 243.851 C 738.138 246.815 740.543 249.22 743.507 249.22 L 748.876 249.22 L 748.876 243.851 C 748.876 240.887 746.471 238.482 743.507 238.482 Z M 738.138 279.644 C 738.138 282.608 740.543 285.013 743.507 285.013 C 746.471 285.013 748.876 282.608 748.876 279.644 L 748.876 274.275 L 743.507 274.275 C 740.543 274.275 738.138 276.68 738.138 279.644 Z" p-id="7962" style="stroke-width: 1; fill: rgb(12, 87, 255);"/></g><g id="object-0"><path d="M 807.934 211.637 L 714.872 211.637 C 712.893 211.637 711.293 213.237 711.293 215.216 L 711.293 308.279 C 711.293 310.258 712.893 311.858 714.872 311.858 L 807.934 311.858 C 809.914 311.858 811.513 310.258 811.513 308.279 L 811.513 215.216 C 811.513 213.237 809.914 211.637 807.934 211.637 Z M 779.3 267.116 C 786.223 267.116 791.828 272.721 791.828 279.644 C 791.828 286.568 786.223 292.172 779.3 292.172 C 772.376 292.172 766.772 286.568 766.772 279.644 L 766.772 274.275 L 756.035 274.275 L 756.035 279.644 C 756.035 286.568 750.43 292.172 743.507 292.172 C 736.583 292.172 730.979 286.568 730.979 279.644 C 730.979 272.721 736.583 267.116 743.507 267.116 L 748.876 267.116 L 748.876 256.379 L 743.507 256.379 C 736.583 256.379 730.979 250.775 730.979 243.851 C 730.979 236.928 736.583 231.323 743.507 231.323 C 750.43 231.323 756.035 236.928 756.035 243.851 L 756.035 249.22 L 766.772 249.22 L 766.772 243.851 C 766.772 236.928 772.376 231.323 779.3 231.323 C 786.223 231.323 791.828 236.928 791.828 243.851 C 791.828 250.775 786.223 256.379 779.3 256.379 L 773.931 256.379 L 773.931 267.116 L 779.3 267.116 Z" p-id="7961" style="stroke-width: 1; fill: rgb(12, 87, 255);"/></g></g></svg>