<?xml version="1.0" encoding="utf-8"?>
<svg xmlns="http://www.w3.org/2000/svg" viewBox="578.4916 238.6781 414.5093 91.4835" width="414.509px" height="91.4835px" preserveAspectRatio="none"><g id="object-0"><g id="Grupo_1" transform="matrix(1, 0, 0, 1, 518.195999, 169.828939)"><path d="M 167 141.67 L 179.96 141.67 L 179.96 119.44 L 188.6 119.44 L 201.47 141.67 L 215.69 141.67 L 201.2 118.36 C 210.56 116.02 216.23 109 216.23 99.73 C 216.23 86.68 207.23 79.93 189.95 79.93 L 167 79.93 Z M 179.96 109.72 L 179.96 89.65 L 191.12 89.65 C 198.5 89.65 202.82 93.43 202.82 99.73 C 202.82 106.03 198.5 109.72 191.12 109.72 Z M 241.51 142.66 C 247.9 142.66 253.39 140.59 257.26 136.72 L 257.26 141.67 L 270.22 141.67 L 270.22 94.24 L 257.26 94.24 L 257.26 127.81 C 254.56 131.32 250.87 133.12 246.46 133.12 C 240.07 133.12 236.02 129.25 236.02 123.22 L 236.02 94.24 L 223.06 94.24 L 223.06 125.29 C 223.06 136.09 229.99 142.66 241.51 142.66 Z M 279.92 141.67 L 292.88 141.67 L 292.88 108.1 C 295.58 104.59 299.27 102.79 303.77 102.79 C 309.98 102.79 314.12 106.66 314.12 112.69 L 314.12 141.67 L 327.08 141.67 L 327.08 110.53 C 327.08 99.82 320.06 93.25 308.72 93.25 C 302.15 93.25 296.75 95.32 292.88 99.28 L 292.88 94.24 L 279.92 94.24 Z M 363.53 142.66 C 382.25 142.66 391.25 136.99 391.25 125.56 C 391.25 118.27 386.48 112.87 378.29 110.71 C 385.04 108.46 388.73 103.78 388.73 97.48 C 388.73 87.04 380.72 82.09 363.53 82.09 C 346.25 82.09 338.33 87.04 338.33 97.48 C 338.33 103.96 341.93 108.64 348.5 110.71 C 340.4 112.78 335.81 118.09 335.81 125.56 C 335.81 137.08 344.81 142.66 363.53 142.66 Z M 363.53 107.29 C 355.61 107.29 351.65 104.68 351.65 99.55 C 351.65 94.24 355.25 91.81 363.53 91.81 C 371.9 91.81 375.41 94.15 375.41 99.55 C 375.41 104.41 371.09 107.29 363.53 107.29 Z M 363.53 132.94 C 353.9 132.94 349.22 130.06 349.22 124.39 C 349.22 119.08 354.17 116.2 363.53 116.2 C 372.89 116.2 377.93 119.08 377.93 124.39 C 377.93 130.06 373.16 132.94 363.53 132.94 Z M 407 85.87 C 410.42 85.87 413.03 83.17 413.03 79.75 C 413.03 76.42 410.42 73.72 407 73.72 C 403.67 73.72 400.97 76.42 400.97 79.75 C 400.97 83.17 403.67 85.87 407 85.87 Z M 400.52 141.67 L 413.48 141.67 L 413.48 94.24 L 400.52 94.24 Z M 423.38 141.67 L 436.34 141.67 L 436.34 108.1 C 439.04 104.59 442.73 102.79 447.23 102.79 C 453.44 102.79 457.58 106.66 457.58 112.69 L 457.58 141.67 L 470.54 141.67 L 470.54 110.53 C 470.54 99.82 463.52 93.25 452.18 93.25 C 445.61 93.25 440.21 95.32 436.34 99.28 L 436.34 94.24 L 423.38 94.24 Z" style="fill: rgb(255, 255, 255); text-wrap-mode: nowrap;"/></g><g id="SVGRepo_iconCarrier" transform="matrix(4.079317, 0, 0, 4.079317, 570.332974, 230.519488)" style=""><path fill-rule="evenodd" clip-rule="evenodd" d="M3.17157 3.17157C3.92172 2.42143 4.93913 2 6 2C7.06087 2 8.07828 2.42143 8.82843 3.17157C9.57857 3.92172 10 4.93913 10 6V8H14V6C14 4.93913 14.4214 3.92172 15.1716 3.17157C15.9217 2.42143 16.9391 2 18 2C19.0609 2 20.0783 2.42143 20.8284 3.17157C21.5786 3.92172 22 4.93913 22 6C22 7.06087 21.5786 8.07828 20.8284 8.82843C20.0783 9.57857 19.0609 10 18 10H16V14H18C19.0609 14 20.0783 14.4214 20.8284 15.1716C21.5786 15.9217 22 16.9391 22 18C22 19.0609 21.5786 20.0783 20.8284 20.8284C20.0783 21.5786 19.0609 22 18 22C16.9391 22 15.9217 21.5786 15.1716 20.8284C14.4214 20.0783 14 19.0609 14 18V16H10V18C10 19.0609 9.57857 20.0783 8.82843 20.8284C8.07828 21.5786 7.06087 22 6 22C4.93913 22 3.92172 21.5786 3.17157 20.8284C2.42143 20.0783 2 19.0609 2 18C2 16.9391 2.42143 15.9217 3.17157 15.1716C3.92172 14.4214 4.93913 14 6 14H8V10H6C4.93913 10 3.92172 9.57857 3.17157 8.82843C2.42143 8.07828 2 7.06087 2 6C2 4.93913 2.42143 3.92172 3.17157 3.17157ZM8 8V6C8 5.46957 7.78929 4.96086 7.41421 4.58579C7.03914 4.21071 6.53043 4 6 4C5.46957 4 4.96086 4.21071 4.58579 4.58579C4.21071 4.96086 4 5.46957 4 6C4 6.53043 4.21071 7.03914 4.58579 7.41421C4.96086 7.78929 5.46957 8 6 8H8ZM10 10V14H14V10H10ZM8 16H6C5.46957 16 4.96086 16.2107 4.58579 16.5858C4.21071 16.9609 4 17.4696 4 18C4 18.5304 4.21071 19.0391 4.58579 19.4142C4.96086 19.7893 5.46957 20 6 20C6.53043 20 7.03914 19.7893 7.41421 19.4142C7.78929 19.0391 8 18.5304 8 18V16ZM16 16V18C16 18.5304 16.2107 19.0391 16.5858 19.4142C16.9609 19.7893 17.4696 20 18 20C18.5304 20 19.0391 19.7893 19.4142 19.4142C19.7893 19.0391 20 18.5304 20 18C20 17.4696 19.7893 16.9609 19.4142 16.5858C19.0391 16.2107 18.5304 16 18 16H16ZM16 8H18C18.5304 8 19.0391 7.78929 19.4142 7.41421C19.7893 7.03914 20 6.53043 20 6C20 5.46957 19.7893 4.96086 19.4142 4.58579C19.0391 4.21071 18.5304 4 18 4C17.4696 4 16.9609 4.21071 16.5858 4.58579C16.2107 4.96086 16 5.46957 16 6V8Z" style="fill: rgb(255, 255, 255);"/></g></g></svg>